<svg version="1.1" id="Layer_1" xmlns="http://www.w3.org/2000/svg" xmlns:xlink="http://www.w3.org/1999/xlink" x="0px" y="0px"
	 width="100%" viewBox="0 0 236 236" enable-background="new 0 0 236 236" xml:space="preserve">
<path fill="#E9E9E9" opacity="1.000000" stroke="none" 
	d="
M131.000000,237.000000 
	C87.333336,237.000000 44.166672,237.000000 1.000006,237.000000 
	C1.000004,158.333344 1.000004,79.666679 1.000002,1.000016 
	C79.666656,1.000011 158.333313,1.000011 236.999969,1.000005 
	C236.999985,79.666649 236.999985,158.333298 237.000000,236.999969 
	C201.833328,237.000000 166.666672,237.000000 131.000000,237.000000 
M170.499847,220.015015 
	C177.484451,219.900406 184.704941,220.892365 191.409271,219.463089 
	C211.266983,215.229630 221.545349,201.873596 221.814560,181.767670 
	C222.387650,138.967453 222.097504,96.153824 221.941925,53.346493 
	C221.868164,33.045780 204.941971,16.126659 184.651123,16.059206 
	C140.178040,15.911362 95.703766,15.918626 51.230831,16.087385 
	C41.594273,16.123953 33.113346,19.962580 26.027416,26.525036 
	C16.947910,34.933781 14.357562,46.009239 14.112337,57.732838 
	C13.953028,65.349068 14.916687,72.982704 14.939260,80.609848 
	C15.041304,115.089066 14.974550,149.568741 14.995100,184.048264 
	C15.004809,200.339539 26.499901,215.729416 42.456245,218.847260 
	C51.968651,220.705948 61.912323,220.819977 71.666672,220.872421 
	C87.285866,220.956406 102.907547,220.201950 118.530571,220.052933 
	C135.518936,219.890854 152.510040,220.015411 170.499847,220.015015 
z"/>
<path fill="#FEFEFE" opacity="1.000000" stroke="none" 
	d="
M169.999893,220.014999 
	C152.510040,220.015411 135.518936,219.890854 118.530571,220.052933 
	C102.907547,220.201950 87.285866,220.956406 71.666672,220.872421 
	C61.912323,220.819977 51.968651,220.705948 42.456245,218.847260 
	C26.499901,215.729416 15.004809,200.339539 14.995100,184.048264 
	C14.974550,149.568741 15.041304,115.089066 14.939260,80.609848 
	C14.916687,72.982704 13.953028,65.349068 14.112337,57.732838 
	C14.357562,46.009239 16.947910,34.933781 26.027416,26.525036 
	C33.113346,19.962580 41.594273,16.123953 51.230831,16.087385 
	C95.703766,15.918626 140.178040,15.911362 184.651123,16.059206 
	C204.941971,16.126659 221.868164,33.045780 221.941925,53.346493 
	C222.097504,96.153824 222.387650,138.967453 221.814560,181.767670 
	C221.545349,201.873596 211.266983,215.229630 191.409271,219.463089 
	C184.704941,220.892365 177.484451,219.900406 169.999893,220.014999 
M58.556282,81.295952 
	C55.733086,81.374001 52.864700,81.158752 50.095222,81.585449 
	C42.005985,82.831764 36.685013,89.627625 37.049561,97.887337 
	C37.405979,105.962914 43.598186,112.694038 51.688656,112.757500 
	C80.135651,112.980644 108.585335,112.979401 137.033310,112.875511 
	C143.972473,112.850166 149.407349,108.083420 151.070282,101.475136 
	C153.836899,90.480949 146.837677,81.336525 135.402710,81.303406 
	C110.115295,81.230194 84.827484,81.291656 58.556282,81.295952 
M91.653862,155.047562 
	C94.799950,155.978867 97.940094,157.694626 101.093071,157.718552 
	C128.714493,157.928162 156.338470,157.897430 183.961014,157.778641 
	C189.203445,157.756088 193.686066,155.550552 196.534073,150.911880 
	C199.920395,145.396393 200.352081,139.548416 197.255814,133.838455 
	C194.184326,128.174210 189.003098,126.058540 182.678040,126.068336 
	C155.887070,126.109848 129.095428,126.153618 102.305321,125.986748 
	C94.924446,125.940773 89.240379,128.305359 86.147552,135.235626 
	C83.144928,141.963806 84.952560,148.628616 91.653862,155.047562 
z"/>
<path fill="#122F4C" opacity="1.000000" stroke="none" 
	d="
M59.048058,81.297066 
	C84.827484,81.291656 110.115295,81.230194 135.402710,81.303406 
	C146.837677,81.336525 153.836899,90.480949 151.070282,101.475136 
	C149.407349,108.083420 143.972473,112.850166 137.033310,112.875511 
	C108.585335,112.979401 80.135651,112.980644 51.688656,112.757500 
	C43.598186,112.694038 37.405979,105.962914 37.049561,97.887337 
	C36.685013,89.627625 42.005985,82.831764 50.095222,81.585449 
	C52.864700,81.158752 55.733086,81.374001 59.048058,81.297066 
z"/>
<path fill="#B0B2B3" opacity="1.000000" stroke="none" 
	d="
M91.359467,154.817749 
	C84.952560,148.628616 83.144928,141.963806 86.147552,135.235626 
	C89.240379,128.305359 94.924446,125.940773 102.305321,125.986748 
	C129.095428,126.153618 155.887070,126.109848 182.678040,126.068336 
	C189.003098,126.058540 194.184326,128.174210 197.255814,133.838455 
	C200.352081,139.548416 199.920395,145.396393 196.534073,150.911880 
	C193.686066,155.550552 189.203445,157.756088 183.961014,157.778641 
	C156.338470,157.897430 128.714493,157.928162 101.093071,157.718552 
	C97.940094,157.694626 94.799950,155.978867 91.359467,154.817749 
z"/>
</svg>