<svg version="1.1" id="Layer_1" xmlns="http://www.w3.org/2000/svg" xmlns:xlink="http://www.w3.org/1999/xlink" x="0px" y="0px"
	 width="100%" viewBox="0 0 182 182" enable-background="new 0 0 182 182" xml:space="preserve">
<path fill="#FDFDFD" opacity="1.000000" stroke="none" 
	d="
M92.000000,183.000000 
	C61.333336,183.000000 31.166670,183.000000 1.000004,183.000000 
	C1.000003,122.333336 1.000003,61.666679 1.000001,1.000012 
	C61.666656,1.000008 122.333313,1.000008 182.999969,1.000004 
	C182.999985,61.666656 182.999985,122.333313 183.000000,182.999985 
	C152.833328,183.000000 122.666664,183.000000 92.000000,183.000000 
M33.601059,85.433479 
	C59.097729,85.472267 84.594391,85.528053 110.091072,85.541359 
	C120.114487,85.546593 126.839325,79.103203 126.800667,69.646988 
	C126.761887,60.161045 120.153816,53.991222 109.942490,53.960796 
	C99.610519,53.930012 89.278427,53.934353 78.946388,53.937168 
	C61.781895,53.941841 44.615948,53.828609 27.453497,54.021412 
	C18.454048,54.122513 12.111151,60.921604 12.140565,69.781578 
	C12.169546,78.511024 18.725714,85.139420 27.640009,85.423500 
	C29.304790,85.476547 30.972683,85.431953 33.601059,85.433479 
M171.062393,124.414375 
	C174.990479,118.686417 175.453247,112.609428 172.250397,106.527985 
	C168.980011,100.318321 163.228836,98.878242 156.633911,98.902420 
	C130.016739,99.000023 103.398933,98.915314 76.781364,98.918610 
	C66.527931,98.919876 60.109901,104.676819 60.009995,113.891891 
	C59.902676,123.790482 66.371361,130.049576 76.795364,130.054932 
	C103.911995,130.068863 131.028961,129.987839 158.144989,130.114456 
	C163.163620,130.137894 167.249863,128.682220 171.062393,124.414375 
z"/>
<path fill="#112D4B" opacity="1.000000" stroke="none" 
	d="
M33.120102,85.432953 
	C30.972683,85.431953 29.304790,85.476547 27.640009,85.423500 
	C18.725714,85.139420 12.169546,78.511024 12.140565,69.781578 
	C12.111151,60.921604 18.454048,54.122513 27.453497,54.021412 
	C44.615948,53.828609 61.781895,53.941841 78.946388,53.937168 
	C89.278427,53.934353 99.610519,53.930012 109.942490,53.960796 
	C120.153816,53.991222 126.761887,60.161045 126.800667,69.646988 
	C126.839325,79.103203 120.114487,85.546593 110.091072,85.541359 
	C84.594391,85.528053 59.097729,85.472267 33.120102,85.432953 
z"/>
<path fill="#B0B1B2" opacity="1.000000" stroke="none" 
	d="
M170.815887,124.696457 
	C167.249863,128.682220 163.163620,130.137894 158.144989,130.114456 
	C131.028961,129.987839 103.911995,130.068863 76.795364,130.054932 
	C66.371361,130.049576 59.902676,123.790482 60.009995,113.891891 
	C60.109901,104.676819 66.527931,98.919876 76.781364,98.918610 
	C103.398933,98.915314 130.016739,99.000023 156.633911,98.902420 
	C163.228836,98.878242 168.980011,100.318321 172.250397,106.527985 
	C175.453247,112.609428 174.990479,118.686417 170.815887,124.696457 
z"/>
</svg>