<svg width="12" height="12" viewBox="0 0 12 12" fill="none" xmlns="http://www.w3.org/2000/svg">
<path fill-rule="evenodd" clip-rule="evenodd" d="M2.8125 5.94975V1.8052C2.8125 1.34122 3.18863 0.965088 3.65261 0.965088C4.1166 0.965088 4.49273 1.34122 4.49273 1.8052V5.82804C4.49273 6.28364 4.63304 6.64556 4.87951 6.89315C5.12563 7.1404 5.49758 7.29369 6 7.29369C6.50242 7.29369 6.87437 7.1404 7.12049 6.89315C7.36696 6.64556 7.50727 6.28364 7.50727 5.82804V1.8052C7.50727 1.34122 7.8834 0.965088 8.34739 0.965088C8.81137 0.965088 9.1875 1.34122 9.1875 1.8052V5.94975C9.1875 6.79567 8.88083 7.52339 8.31917 8.03838C7.75885 8.55214 6.96047 8.84009 6 8.84009C5.03953 8.84009 4.24115 8.55214 3.68083 8.03838C3.11917 7.52339 2.8125 6.79567 2.8125 5.94975Z" fill="#333333"/>
<path fill-rule="evenodd" clip-rule="evenodd" d="M3.5625 9.53503H8.4375C8.85171 9.53503 9.1875 9.87082 9.1875 10.285C9.1875 10.6992 8.85171 11.035 8.4375 11.035H3.5625C3.14829 11.035 2.8125 10.6992 2.8125 10.285C2.8125 9.87082 3.14829 9.53503 3.5625 9.53503Z" fill="#333333"/>
</svg>
