<svg width="12" height="12" viewBox="0 0 12 12" fill="none" xmlns="http://www.w3.org/2000/svg">
<path d="M3 7.5C3 7.08752 2.6625 6.75 2.25 6.75C1.83579 6.75 1.5 6.41751 1.5 5.993V4.50705C1.5 4.08895 1.82841 3.75002 2.2522 3.75002H5.06029C5.57807 3.75002 5.9978 3.33028 5.9978 2.81251C5.9978 2.29474 5.57806 1.875 5.06029 1.875H1.49401C0.668892 1.875 0 2.54519 0 3.36965V6.75534C0 7.58082 0.675074 8.25 1.50078 8.25001L2.25 8.25002C2.6625 8.25002 3 7.91252 3 7.5Z" fill="#333333"/>
<path d="M3.48149 9.98682C3.07887 9.73225 2.95886 9.1995 3.21343 8.79688L7.33527 2.27804C7.58984 1.87542 8.12259 1.75541 8.52521 2.00998C8.92782 2.26455 9.04783 2.79731 8.79326 3.19992L4.67143 9.71877C4.41685 10.1214 3.8841 10.2414 3.48149 9.98682Z" fill="#333333"/>
<path d="M10.4992 3.74991H9.75C9.3375 3.74991 9 4.08741 9 4.49991C9 4.91241 9.3375 5.24991 9.75 5.24991H9.75215C10.1652 5.24991 10.5 5.58242 10.5 6.00694V7.49288C10.5 7.91098 10.1716 8.24991 9.7478 8.24991H6.93972C6.42194 8.24991 6.0022 8.66965 6.0022 9.18743C6.0022 9.70521 6.42194 10.125 6.93972 10.125H10.506C11.3311 10.125 12 9.45477 12 8.63029V5.24457C12 4.41909 11.3249 3.74991 10.4992 3.74991Z" fill="#333333"/>
</svg>
