<svg width="12" height="12" viewBox="0 0 12 12" fill="none" xmlns="http://www.w3.org/2000/svg">
<path d="M0.75 5.61548C0.75 5.24048 1.05 4.86548 1.5 4.86548H10.5C10.875 4.86548 11.25 5.16548 11.25 5.61548C11.25 5.99048 10.95 6.36548 10.5 6.36548H1.5C1.125 6.36548 0.75 6.06548 0.75 5.61548ZM1.5 1.11548C1.125 1.11548 0.75 1.41548 0.75 1.86548C0.75 2.24048 1.05 2.61548 1.5 2.61548H10.5C10.875 2.61548 11.25 2.31548 11.25 1.86548C11.25 1.49048 10.95 1.11548 10.5 1.11548H1.5ZM3.675 10.4905V10.1155H1.5C1.125 10.1155 0.75 9.81548 0.75 9.36548C0.75 8.99048 1.05 8.61548 1.5 8.61548H3.675V8.39048C3.675 8.09048 3.975 7.94048 4.275 8.09048L5.7 9.06548C6 9.29048 6 9.66548 5.7 9.89048L4.275 10.8655C3.975 10.9405 3.675 10.7905 3.675 10.4905ZM7.35 8.69048C6.975 8.69048 6.6 8.99048 6.6 9.44048C6.6 9.81548 6.9 10.1905 7.35 10.1905H10.5C10.875 10.1905 11.25 9.89048 11.25 9.44048C11.25 9.06548 10.95 8.69048 10.5 8.69048H7.35Z" fill="#333333"/>
</svg>
