<svg width="12" height="12" viewBox="0 0 12 12" fill="none" xmlns="http://www.w3.org/2000/svg">
<path fill-rule="evenodd" clip-rule="evenodd" d="M0 2.501C0.00158444 1.83818 0.265591 1.20296 0.734276 0.734276C1.20296 0.265591 1.83818 0.00158444 2.501 0L9.499 0C10.1618 0.00158444 10.797 0.265591 11.2657 0.734276C11.7344 1.20296 11.9984 1.83818 12 2.501V9.499C11.9984 10.1618 11.7344 10.797 11.2657 11.2657C10.797 11.7344 10.1618 11.9984 9.499 12H2.501C1.83818 11.9984 1.20296 11.7344 0.734276 11.2657C0.265591 10.797 0.00158444 10.1618 0 9.499L0 2.501ZM1 2.497V9.503C1 10.328 1.67 11 2.497 11H9.503C10.328 11 11 10.33 11 9.503V2.497C11 1.672 10.33 1 9.503 1H2.497C1.672 1 1 1.67 1 2.497ZM4.289 8.677L3.004 7.41C2.91091 7.31782 2.83695 7.20816 2.78635 7.08732C2.73575 6.96648 2.70951 6.83684 2.70914 6.70583C2.70877 6.57483 2.73427 6.44504 2.78418 6.32391C2.8341 6.20279 2.90744 6.09271 3 6C3.09084 5.90724 3.19978 5.83415 3.32006 5.78527C3.44033 5.73639 3.56938 5.71277 3.69917 5.71586C3.82896 5.71896 3.95673 5.74871 4.07454 5.80326C4.19235 5.85782 4.29769 5.93602 4.384 6.033L4.66 6.336C4.852 6.545 5.158 6.544 5.352 6.342L7.595 4.017C7.68474 3.92125 7.79291 3.84462 7.91301 3.79171C8.0331 3.73881 8.16265 3.71072 8.29388 3.70913C8.4251 3.70754 8.55529 3.73249 8.67663 3.78247C8.79798 3.83246 8.90797 3.90645 9 4C9.09312 4.09323 9.16683 4.204 9.21687 4.3259C9.26691 4.44779 9.2923 4.5784 9.29155 4.71017C9.29081 4.84194 9.26395 4.97225 9.21254 5.09357C9.16112 5.2149 9.08616 5.32482 8.992 5.417L5.715 8.67C5.5256 8.8576 5.27021 8.96351 5.00363 8.965C4.73705 8.9665 4.4805 8.86346 4.289 8.678V8.677Z" fill="#333333"/>
</svg>
