<svg width="12" height="12" viewBox="0 0 12 12" fill="none" xmlns="http://www.w3.org/2000/svg">
<path fill-rule="evenodd" clip-rule="evenodd" d="M6.77253 5.26885L5.91164 5.0371L5.90996 5.03666C5.40704 4.90748 5.07643 4.76124 4.87259 4.58687C4.67797 4.4204 4.59175 4.22235 4.59175 3.95656C4.59175 3.61527 4.73109 3.33882 4.97496 3.14441C5.22192 2.94753 5.58595 2.82765 6.04067 2.82765C6.71306 2.82765 7.19465 3.11158 7.41808 3.56444C7.55404 3.84002 7.81981 4.11251 8.18115 4.11251H8.28477C8.67924 4.11251 9.04628 3.7692 8.92752 3.34017C8.59435 2.13648 7.47857 1.34985 6.05693 1.34985C5.1739 1.34985 4.42452 1.61316 3.89392 2.08774C3.36179 2.56368 3.0614 3.24198 3.0614 4.04579C3.0614 4.70299 3.23014 5.24355 3.59733 5.66753C3.9623 6.08895 4.50896 6.37852 5.23312 6.56435L6.24066 6.83188C6.74998 6.96357 7.09665 7.12154 7.31369 7.31196C7.52304 7.49564 7.61966 7.7156 7.61966 8.00151C7.61966 8.64692 7.00896 9.16611 6.07861 9.16611C5.28779 9.16611 4.72458 8.85851 4.48098 8.38666C4.34016 8.1139 4.07332 7.83366 3.70738 7.83366H3.5952C3.19757 7.83366 2.83271 8.18005 2.94711 8.60951C3.28646 9.88348 4.43377 10.6499 5.98647 10.6499C6.94016 10.6499 7.73221 10.385 8.28787 9.89233C8.84558 9.3979 9.15002 8.68727 9.15002 7.829C9.15002 7.15621 8.97671 6.61467 8.5784 6.18886C8.18458 5.76786 7.58659 5.47721 6.77253 5.26885Z" fill="#333333"/>
<path fill-rule="evenodd" clip-rule="evenodd" d="M2.0625 5.43732H9.9375C10.3517 5.43732 10.6875 5.7731 10.6875 6.18732C10.6875 6.60153 10.3517 6.93732 9.9375 6.93732H2.0625C1.64829 6.93732 1.3125 6.60153 1.3125 6.18732C1.3125 5.7731 1.64829 5.43732 2.0625 5.43732Z" fill="#333333"/>
</svg>
