<svg width="12" height="12" viewBox="0 0 12 12" fill="none" xmlns="http://www.w3.org/2000/svg">
<path d="M7.3874 8.63311C7.0124 8.63311 6.6374 8.93311 6.6374 9.38311C6.6374 9.75811 6.9374 10.1331 7.3874 10.1331H10.5374C10.9124 10.1331 11.2874 9.83311 11.2874 9.38311C11.2874 9.00811 10.9874 8.63311 10.5374 8.63311H7.3874ZM0.787402 5.55811C0.787402 5.18311 1.0874 4.80811 1.5374 4.80811H10.5374C10.9124 4.80811 11.2874 5.10811 11.2874 5.55811C11.2874 5.93311 10.9874 6.30811 10.5374 6.30811H1.5374C1.1624 6.30811 0.787402 6.00811 0.787402 5.55811ZM1.5374 1.05811C1.1624 1.05811 0.787402 1.35811 0.787402 1.80811C0.787402 2.18311 1.0874 2.55811 1.5374 2.55811H10.5374C10.9124 2.55811 11.2874 2.25811 11.2874 1.80811C11.2874 1.43311 10.9874 1.05811 10.5374 1.05811H1.5374ZM2.9624 8.33311V8.70811H5.1374C5.5124 8.70811 5.8874 9.00811 5.8874 9.45811C5.8874 9.83311 5.5874 10.2081 5.1374 10.2081H2.9624V10.5831C2.9624 10.8831 2.6624 11.0331 2.3624 10.8831L0.937402 9.90811C0.637402 9.68311 0.637402 9.30811 0.937402 9.08311L2.3624 8.10811C2.6624 7.88311 2.9624 8.03311 2.9624 8.33311Z" fill="#333333"/>
</svg>
