<svg width="12" height="12" viewBox="0 0 12 12" fill="none" xmlns="http://www.w3.org/2000/svg">
<path d="M6.46369 10.4911C8.38097 10.4911 9.56993 9.49514 9.56993 7.92023C9.56993 6.76239 8.70467 5.80045 7.5157 5.7133C8.43699 5.57636 9.14041 4.70194 9.14041 3.74952C9.14041 2.36136 8.10085 1.50854 6.35787 1.50854H3.42993C2.87765 1.50854 2.42993 1.95626 2.42993 2.50854V9.49112C2.42993 10.0434 2.87765 10.4911 3.42993 10.4911H6.46369ZM4.30986 3.4465C4.30986 3.17036 4.53372 2.9465 4.80986 2.9465H5.87855C6.77494 2.9465 7.29161 3.37603 7.29161 4.09189C7.29161 4.81399 6.73759 5.23106 5.72292 5.23106H4.80986C4.53372 5.23106 4.30986 5.0072 4.30986 4.73106V3.4465ZM4.80986 9.05317C4.53372 9.05317 4.30986 8.82931 4.30986 8.55317V7.00094C4.30986 6.7248 4.53372 6.50094 4.80986 6.50094H5.94079C7.04883 6.50094 7.65265 6.93669 7.65265 7.75838C7.65265 8.59875 7.06751 9.05317 5.98437 9.05317H4.80986Z" fill="#333333"/>
</svg>
